<svg width="101" height="101" viewBox="0 0 101 101" fill="none" xmlns="http://www.w3.org/2000/svg">
<path fill-rule="evenodd" clip-rule="evenodd" d="M71.0705 26.4387C71.9774 29.4982 72.0439 38.4515 70.9562 40.8632C67.9369 42.1769 62.0629 40.5802 58.4542 40.1947C50.6515 39.3614 52.2226 39.9708 52.2155 31.7862C52.209 24.3406 50.8098 23.5671 58.594 24.5479C61.9026 24.9648 68.886 25.2498 71.0705 26.4387ZM29.4773 37.8363L29.7964 26.405C31.973 25.3669 37.4554 25.1171 40.4052 24.8058C49.5661 23.8395 48.7687 21.5138 48.7687 36.1863C48.7687 39.3283 48.752 39.5509 45.7238 39.9055L33.5937 41.2494C29.6983 41.6233 29.4773 41.6819 29.4773 37.8363ZM22.7305 41.1363L24.9349 42.0603C40.3451 47.334 46.3592 55.9848 50.674 58.0001C58.883 51.9985 65.0852 44.6004 78.2881 41.518C77.8287 9.11624 75.915 10.1857 51.323 10.1857C26.9143 10.1857 22.89 7.39739 22.7305 41.1363Z" fill="#007D53"/>
<path fill-rule="evenodd" clip-rule="evenodd" d="M25.603 90.9215C30.0789 90.4131 73.8267 90.4098 75.5452 91.1851C75.1253 91.9123 75.6041 91.3864 74.8669 92.0674C70.5657 96.0416 57.9848 94.6012 50.2167 94.6012C46.1492 94.6012 32.4762 95.2311 29.2405 93.8674C28.8807 93.7159 27.3824 92.9916 27.0138 92.7602C24.5383 91.2052 25.9266 91.8319 25.603 90.9215ZM31.2872 83.5103L69.6947 83.5108C70.567 85.0897 71.5788 85.7584 72.2574 87.2194L28.7313 87.2244C29.4339 85.7368 30.4232 85.103 31.2872 83.5103ZM62.9441 76.1924C64.4869 76.9513 65.7882 78.3771 66.262 80.0203H34.1697C36.427 74.7758 40.7118 76.1921 46.8968 76.1924C52.246 76.1926 57.5949 76.1924 62.9441 76.1924ZM66.6944 59.0069C73.4245 57.1499 75.7063 67.4562 69.386 69.0305C62.3747 70.777 60.076 60.8336 66.6944 59.0069ZM31.8247 59.0092C38.5392 57.3258 40.8093 67.4182 34.4918 69.0061C27.5935 70.7403 24.9297 60.7378 31.8247 59.0092ZM50.7704 62.2119C46.4976 60.9851 35.1231 47.182 22.3715 45.1343C21.7372 65.1242 16.8868 75.7398 32.5726 76.2426C31.9468 77.7471 23.2875 88.412 21.9958 89.329C-16.2924 61.7676 3.62805 2.02885 50.2167 1.79188C84.9152 1.61522 107.996 36.0525 96.0123 67.4044C92.4398 76.751 86.7343 83.7548 78.9913 89.3232C77.7042 88.3972 69.0834 77.8019 68.4073 76.2354C75.9071 76.0295 79.9 73.6362 79.7147 65.8992C79.5744 60.042 79.299 50.6805 78.4359 45.1116C72.4948 46.0952 67.7759 49.4575 63.6158 52.2589L50.7704 62.2119ZM0.152111 54.8859C2.09361 81.026 26.1484 102.507 55.038 100.246C81.5146 98.1733 103.126 74.619 100.833 45.6959C98.7537 19.4797 75.0391 -2.18561 45.9633 0.176555C19.2539 2.34622 -2.01492 25.708 0.152111 54.8859Z" fill="#007D53"/>
<path fill-rule="evenodd" clip-rule="evenodd" d="M69.2103 62.9903C69.2063 62.9882 68.249 61.2161 66.6782 62.9604C64.3559 65.5391 71.06 67.5633 69.2103 62.9903Z" fill="#007D53"/>
<path fill-rule="evenodd" clip-rule="evenodd" d="M31.787 62.9773C31.7706 63.015 30.3024 65.7599 33.0732 65.6966C35.1426 65.6493 35.0078 63.304 33.9753 62.6861C32.4343 61.7641 31.9 62.9173 31.787 62.9773Z" fill="#007D53"/>
</svg>
